<svg xmlns="http://www.w3.org/2000/svg" width="443" height="54" viewBox="0 0 443 54"><g><g><g><path fill="#fff" d="M.263 0h20.95c23.792 0 24.95.214 28.74 4.99l2.158 2.78v5.704c0 6.345-.684 8.27-3.947 11.265-3.211 2.994-4.948 3.279-20.898 3.564l-15.423.357v11.264H.263zM24.95 8.555H12.37v12.833h11.528c6.895 0 12.159-.285 13.054-.784 2.158-1.07 3.842-3.494 3.842-5.419 0-2.21-1.316-5.632-2.368-6.202-.474-.214-6.528-.428-13.476-.428z"/></g><g><path fill="#fff" d="M59.323 20.105c.105 11.121.316 20.104.579 19.962.21-.072 9.843-.143 21.423-.143h21.056v-7.129H71.324V0H59.218z"/></g><g><path fill="#fff" d="M133.542 0h17.108l4.421 6.202c8.054 11.336 22.055 32.795 22.055 33.65 0 .214-3.158.286-7.053.072l-7.001-.357-2.79-4.491-2.737-4.42H126.7l-2.947 4.563-3 4.634-6.791.213c-3.79.143-6.843.072-6.843-.142 0-.642 13.528-21.317 20.108-30.87zm9.107 8.056c-.895-.356-9.738 12.476-9.738 14.116 0 .356 4.053.642 9.474.642 11.054 0 10.633.784 4.633-8.484-2.106-3.35-4.106-6.131-4.37-6.274z"/></g><g><path fill="#fff" d="M181.969 20.033l.158 19.962h12.107l.157-16.04c.053-8.841.264-16.113.422-16.113 1.526 0 6.421 4.92 18.58 18.75 4.422 5.062 9.16 10.124 10.476 11.264l2.421 2.068H246.608V0h-11.58l-.105 16.397-.158 16.398-2.106-1.498c-2.632-1.924-6.264-5.703-16.318-16.896-4.316-4.848-9.264-10.052-11-11.62L202.286 0H181.864z"/></g><g><path fill="#fff" d="M256.715 20.105c.105 11.121.316 20.104.579 19.962.21-.072 11.738-.143 25.634-.143h25.266v-7.129h-39.478v-9.268h38.426v-7.13h-38.426V7.13H308.194V0H256.61z"/></g><g><path fill="#fff" d="M315.038 3.921v3.921h21.581V40.28l5.79-.213 5.79-.214V7.843l10.686-.143 10.633-.214V.356L342.304.143 315.038 0z"/></g><g><path fill="#fff" d="M398.31 0h17.634l6.843 10.124c8.527 12.69 19.108 29.087 19.108 29.729 0 .213-3.106.356-6.896.285l-6.948-.143-2.21-3.778c-1.212-2.068-2.58-4.207-3.001-4.706-.632-.641-4.422-.855-16.265-.713l-15.423.214-2.685 4.492-2.684 4.491-6.949.143c-3.842.071-6.948 0-6.948-.214 0-.57 9.686-15.4 18.266-28.018zm14.213 14.829c-2.264-3.779-4.37-6.916-4.738-6.987-1.368 0-10.106 12.334-10.106 14.33 0 .713 8 .713 14.58.071l4.264-.499z"/></g><g><path fill="#fff" d="M.21 47.98c0 .071-.052 1.354-.105 2.852L0 53.47h443l-.158-2.71-.158-2.638L221.5 47.98C99.801 47.837.263 47.837.21 47.98z"/></g></g></g></svg>