<svg xmlns="http://www.w3.org/2000/svg" width="70" height="70" viewBox="0 0 70 70"><g><g><g/><g><g><g><path fill="#fff" d="M10.254 0H2.05A2.05 2.05 0 0 0 0 2.05v8.34c0 1.134.917 2.188 2.05 2.188 1.134 0 2.052-1.054 2.052-2.187V4.1h6.152a2.05 2.05 0 0 0 2.05-2.05A2.05 2.05 0 0 0 10.255 0z"/></g></g></g><g><g><g><path fill="#fff" d="M67.954 0H59.75A2.05 2.05 0 0 0 57.7 2.05a2.05 2.05 0 0 0 2.05 2.052h6.153v6.289c0 1.133.917 2.187 2.05 2.187 1.134 0 2.052-1.054 2.052-2.187V2.05A2.05 2.05 0 0 0 67.954 0z"/></g></g></g><g><g><g><path fill="#fff" d="M10.254 65.903H4.102v-6.152A2.05 2.05 0 0 0 2.05 57.7 2.05 2.05 0 0 0 0 59.75v8.204a2.05 2.05 0 0 0 2.05 2.05h8.204a2.05 2.05 0 1 0 0-4.1z"/></g></g></g><g><g><g><path fill="#fff" d="M67.954 57.7a2.05 2.05 0 0 0-2.05 2.05v6.153H59.75a2.05 2.05 0 0 0-2.051 2.05 2.05 2.05 0 0 0 2.05 2.052h8.204a2.05 2.05 0 0 0 2.05-2.051V59.75a2.05 2.05 0 0 0-2.05-2.051z"/></g></g></g><g><g><g><path fill="#fff" d="M4.39 20.43v30.665l21.384-12.984a2.05 2.05 0 0 1 2.801.751 2.05 2.05 0 0 1-.75 2.802L7.044 54.28l25.906 14.88V36.334z"/></g></g></g><g><g><g><path fill="#fff" d="M44.364 38.111l21.247 12.984V20.43L37.05 36.335v32.823l25.906-14.88-20.642-12.614a2.05 2.05 0 1 1 2.05-3.553z"/></g></g></g><g><g><g><path fill="#fff" d="M36.023.273a2.06 2.06 0 0 0-2.051 0L5.99 16.623l29.007 16.155 29.008-16.155z"/></g></g></g></g></g></svg>