<svg xmlns="http://www.w3.org/2000/svg" width="70" height="70" viewBox="0 0 70 70"><g><g><g/><g><g><path fill="#fff" d="M69.925 40.651c-.453 3.128-2.853 5.487-5.972 5.872a2.462 2.462 0 0 0-1.97 1.452 2.529 2.529 0 0 0 .198 2.506c1.765 2.645 1.546 6.032-.545 8.427-2.066 2.366-5.347 3.033-8.166 1.661a2.427 2.427 0 0 0-2.417.142 2.505 2.505 0 0 0-1.171 2.21c.067 3.18-1.929 5.91-4.966 6.795-3.016.88-6.145-.342-7.784-3.038A2.45 2.45 0 0 0 35 65.47a2.45 2.45 0 0 0-2.132 1.208c-1.284 2.113-3.484 3.32-5.827 3.32a6.987 6.987 0 0 1-1.957-.282c-3.037-.885-5.033-3.616-4.966-6.795a2.506 2.506 0 0 0-1.17-2.21 2.427 2.427 0 0 0-2.418-.141c-2.819 1.372-6.1.704-8.166-1.662-2.09-2.395-2.31-5.781-.544-8.427.507-.76.578-1.673.197-2.505a2.463 2.463 0 0 0-1.97-1.453C2.928 46.14.528 43.78.075 40.651c-.454-3.138 1.184-6.093 4.078-7.351a2.492 2.492 0 0 0 1.493-1.972 2.516 2.516 0 0 0-.886-2.336c-2.43-2.035-3.17-5.342-1.842-8.229 1.316-2.86 4.278-4.435 7.37-3.92.869.146 1.7-.156 2.283-.825.6-.69.786-1.587.51-2.462-.953-3.038.203-6.226 2.879-7.932 2.646-1.688 5.984-1.4 8.305.719a2.43 2.43 0 0 0 2.367.552c.86-.252 1.49-.9 1.725-1.777C29.179 2.057 31.848 0 35 0c3.152 0 5.822 2.057 6.643 5.118a2.477 2.477 0 0 0 1.725 1.777c.848.248 1.71.046 2.367-.552 2.321-2.118 5.659-2.407 8.305-.72 2.676 1.707 3.832 4.895 2.878 7.933a2.525 2.525 0 0 0 .51 2.461c.583.67 1.415.971 2.284.826 3.093-.516 6.054 1.06 7.37 3.92 1.328 2.887.588 6.194-1.842 8.229a2.517 2.517 0 0 0-.886 2.336c.13.896.674 1.615 1.494 1.971 2.893 1.26 4.531 4.214 4.077 7.352zm-45.862-16.59a4.38 4.38 0 0 0 4.375 4.376 4.38 4.38 0 0 0 4.375-4.375 4.38 4.38 0 0 0-4.375-4.375 4.38 4.38 0 0 0-4.375 4.375zm21.874 21.875a4.38 4.38 0 0 0-4.375-4.375 4.38 4.38 0 0 0-4.375 4.375 4.38 4.38 0 0 0 4.375 4.375 4.38 4.38 0 0 0 4.375-4.375zm1.547-20.327a2.187 2.187 0 1 0-3.093-3.094L22.516 44.39a2.187 2.187 0 1 0 3.093 3.093z"/></g></g></g></g></svg>