<svg xmlns="http://www.w3.org/2000/svg" width="70" height="70" viewBox="0 0 70 70"><g><g><g/><g><g><path fill="#fff" d="M63.846 10.938h-6.152V4.101a4.102 4.102 0 0 0-8.204 0V7.94a4.761 4.761 0 0 1-3.378 4.574l-3.458 1.064v21.286c0 .055-.003.108-.004.162a6.45 6.45 0 0 0 4.56 1.89h16.635a6.152 6.152 0 0 0 6.153-6.153V17.09a6.152 6.152 0 0 0-6.153-6.153z"/></g><g><path fill="#fff" d="M36.502 36.917h-4.101a2.05 2.05 0 0 1-2.051-2.051V12.99a2.05 2.05 0 0 1 2.05-2.051h4.102a2.05 2.05 0 0 1 2.051 2.05v21.876a2.05 2.05 0 0 1-2.05 2.05z"/></g><g><path fill="#fff" d="M56.055 41.016v21.465a2.05 2.05 0 0 1-2.051 2.051h-43.13l-7.686 5.124a2.05 2.05 0 0 1-2.23.029C.346 69.301 0 68.608 0 67.886V26.251A2.05 2.05 0 0 1 2.05 24.2h24.2v10.664a6.152 6.152 0 0 0 6.152 6.152h4.102c1.792 0 3.407-.77 4.532-1.996a10.47 10.47 0 0 0 6.177 1.996zm-45.801-6.562a2.05 2.05 0 0 0 0 4.102h11.621a2.05 2.05 0 0 0 0-4.102zM45.8 57.013a2.05 2.05 0 0 0 0-4.102H10.254a2.05 2.05 0 0 0 0 4.102zm0-9.229a2.05 2.05 0 0 0 0-4.102H10.254a2.05 2.05 0 0 0 0 4.102z"/></g></g></g></g></svg>